#tb 0: 1/11025
0,          0,          0,        0,    57600, 0x87887a7b
0,       1092,       1092,        0,    57600, 0x10c301d2
0,       2184,       2184,        0,    57600, 0xd1a6f910
0,       3276,       3276,        0,    57600, 0x20242bb9
0,       4368,       4368,        0,    57600, 0xae33cb7f
0,       5460,       5460,        0,    57600, 0x501b82c8
0,       6552,       6552,        0,    57600, 0x84199043
0,       7644,       7644,        0,    57600, 0x946a6dbb
0,       8736,       8736,        0,    57600, 0xeacea671
0,       9828,       9828,        0,    57600, 0x77b8723f
0,      10920,      10920,        0,    57600, 0x371cdb09
0,      12012,      12012,        0,    57600, 0xa16ef5ee
0,      13104,      13104,        0,    57600, 0xcb6abd9e
0,      14196,      14196,        0,    57600, 0xb73e800f
0,      15288,      15288,        0,    57600, 0x368bd93e
0,      16380,      16380,        0,    57600, 0xcde72dc5
